<svg xmlns="http://www.w3.org/2000/svg" viewBox="0 0 86.23 76.41"><defs><style>.cls-1{opacity:0.95;}.cls-2{stroke:#e9eff2;stroke-miterlimit:10;stroke-width:3.26px;}</style></defs><title>humidity</title><g id="Layer_2" data-name="Layer 2"><g id="Layer_1-2" data-name="Layer 1"><g class="cls-1"><path class="cls-2" d="M46.1,74.78A19.27,19.27,0,0,1,26.85,55.53c0-6.85,10-29.12,12.5-34.19,1.7-3.39,4.06-5.25,6.66-5.25,1.5,0,4.36.68,6.67,5.24,2.68,5.29,12.67,27.28,12.67,34.2A19.28,19.28,0,0,1,46.1,74.78ZM46,19.67c-1.14,0-2.43,1.22-3.45,3.27C39.44,29.15,30.43,50,30.43,55.53a15.67,15.67,0,0,0,31.33,0C61.76,50.09,53.05,30,49.48,23,48.43,20.87,47.16,19.67,46,19.67Z"/><path class="cls-2" d="M75,37.71a9.64,9.64,0,0,1-9.63-9.63c0-3.42,5-14.56,6.26-17.1.84-1.69,2-2.62,3.33-2.62.74,0,2.17.34,3.33,2.62,1.34,2.64,6.34,13.64,6.34,17.1A9.64,9.64,0,0,1,75,37.71Zm0-27.56c-.57,0-1.22.61-1.73,1.64-1.56,3.1-6.06,13.53-6.06,16.29a7.83,7.83,0,1,0,15.66,0c0-2.72-4.36-12.78-6.14-16.29C76.13,10.75,75.5,10.15,74.93,10.15Z"/><path class="cls-2" d="M13.46,37.71A11.85,11.85,0,0,1,1.63,25.88c0-4.21,6.12-17.9,7.69-21,1-2.08,2.49-3.23,4.09-3.23.92,0,2.68.42,4.1,3.22,1.65,3.25,7.79,16.77,7.79,21A11.85,11.85,0,0,1,13.46,37.71ZM13.41,3.84c-.7,0-1.49.75-2.12,2-1.92,3.81-7.45,16.63-7.45,20a9.63,9.63,0,1,0,19.25,0c0-3.35-5.36-15.71-7.55-20C14.89,4.57,14.12,3.84,13.41,3.84Z"/></g></g></g></svg>