<svg xmlns="http://www.w3.org/2000/svg" viewBox="0 0 37.74 51.46"><defs><style>.cls-1{fill:#e9eff2;}.cls-2{fill:none;stroke:#e9eff2;stroke-miterlimit:10;stroke-width:2.18px;}</style></defs><title>location</title><g id="Layer_2" data-name="Layer 2"><g id="Layer_1-2" data-name="Layer 1"><path class="cls-1" d="M18.87,0A18.86,18.86,0,0,0,0,18.87C0,29,17.47,50.25,18.21,51.15a.85.85,0,0,0,.66.31.83.83,0,0,0,.66-.31c.74-.9,18.21-22.14,18.21-32.28A18.87,18.87,0,0,0,18.87,0Zm0,49.24c-3.22-4-17.15-21.91-17.15-30.37a17.16,17.16,0,1,1,34.31,0C36,27.33,22.1,45.21,18.87,49.24Z"/><path class="cls-1" d="M18.87,1.71A17.17,17.17,0,0,0,1.72,18.87c0,8.46,13.93,26.34,17.15,30.37C22.1,45.21,36,27.33,36,18.87A17.18,17.18,0,0,0,18.87,1.71Zm0,21.45a7.41,7.41,0,1,1,7.41-7.41A7.41,7.41,0,0,1,18.87,23.16Z"/><path class="cls-2" d="M26.28,15.75a7.41,7.41,0,1,1-7.41-7.4A7.41,7.41,0,0,1,26.28,15.75Z"/></g></g></svg>