<svg xmlns="http://www.w3.org/2000/svg" viewBox="0 0 298.77 90.48"><defs><style>.cls-1{fill:#9ac1d9;}</style></defs><title>logo</title><g id="Layer_2" data-name="Layer 2"><g id="Layer_1-2" data-name="Layer 1"><path class="cls-1" d="M124,30.93,118.16,9.36,112.3,30.93c-.47,1.63-.83,2.81-1.1,3.52a4.56,4.56,0,0,1-1.41,1.92,4,4,0,0,1-2.67.84,4.51,4.51,0,0,1-2.22-.49,4.08,4.08,0,0,1-1.43-1.43,9.21,9.21,0,0,1-.88-2.19c-.21-.84-.45-1.62-.6-2.38L96,6.54a14.46,14.46,0,0,1-.54-3.21,3.11,3.11,0,0,1,1-2.35,3.28,3.28,0,0,1,2.42-1,2.75,2.75,0,0,1,2.67,1.33,14.56,14.56,0,0,1,1.2,3.7l4.74,21,5.26-19.66a32.25,32.25,0,0,1,1.05-3.43,5,5,0,0,1,1.53-2A4.32,4.32,0,0,1,118.16,0,4.16,4.16,0,0,1,121,.91a5,5,0,0,1,1.41,1.95c.26.71.62,1.87,1.06,3.48L128.83,26l4.71-21c.24-1.1.45-1.95.65-2.58A4.33,4.33,0,0,1,135.25.75,2.94,2.94,0,0,1,137.42,0a3.4,3.4,0,0,1,2.42.94,3.13,3.13,0,0,1,1,2.37,15.16,15.16,0,0,1-.53,3.21l-6,24.18c-.4,1.63-.75,2.83-1,3.59a4.78,4.78,0,0,1-1.34,2,4,4,0,0,1-2.74.86,4.08,4.08,0,0,1-2.67-.83,4.65,4.65,0,0,1-1.4-1.88A27.39,27.39,0,0,1,124,30.93Z"/><path class="cls-1" d="M162.64,25.23H149.55a8.71,8.71,0,0,0,.92,4,6.17,6.17,0,0,0,5.64,3.51,7.85,7.85,0,0,0,2.21-.29,7.59,7.59,0,0,0,1.92-.88A15.87,15.87,0,0,0,162,30.24c.52-.45,1.2-1.08,2-1.87a2.21,2.21,0,0,1,1.47-.44,2.42,2.42,0,0,1,1.67.56,2,2,0,0,1,.64,1.6,4.5,4.5,0,0,1-.71,2.13,8.43,8.43,0,0,1-2.17,2.4,12.62,12.62,0,0,1-3.61,1.86,15.63,15.63,0,0,1-5,.73,13.34,13.34,0,0,1-10-3.67,13.76,13.76,0,0,1-3.58-10,16.66,16.66,0,0,1,.85-5.51,12.27,12.27,0,0,1,2.67-4.35,11.31,11.31,0,0,1,4.17-2.79,15,15,0,0,1,5.5-1,13,13,0,0,1,6.68,1.65,10.85,10.85,0,0,1,4.2,4.27,11.22,11.22,0,0,1,1.4,5.34,3.32,3.32,0,0,1-1.45,3.27A8.81,8.81,0,0,1,162.64,25.23Zm-13.09-3.85h12.13a8.2,8.2,0,0,0-1.84-5.14,5.58,5.58,0,0,0-4.23-1.7,5.31,5.31,0,0,0-4.07,1.78A8.54,8.54,0,0,0,149.55,21.38Z"/><path class="cls-1" d="M190.73,33.39a20.49,20.49,0,0,1-4.68,2.83,12.94,12.94,0,0,1-5.1,1,9.49,9.49,0,0,1-4.53-1,7.39,7.39,0,0,1-3-2.76,7.08,7.08,0,0,1-1.06-3.78,6.74,6.74,0,0,1,1.74-4.68,8.64,8.64,0,0,1,4.79-2.67c.43-.1,1.48-.32,3.16-.66s3.13-.66,4.33-.94,2.54-.54,3.87-.94a6.81,6.81,0,0,0-1.07-3.88c-.62-.83-1.92-1.25-3.91-1.25a8,8,0,0,0-3.83.71,6.24,6.24,0,0,0-2.22,2.14,21.89,21.89,0,0,1-1.33,1.87,2.13,2.13,0,0,1-1.63.45,2.86,2.86,0,0,1-1.95-.72,2.32,2.32,0,0,1-.83-1.84,5.7,5.7,0,0,1,1.26-3.45,9,9,0,0,1,3.9-2.75,17.6,17.6,0,0,1,6.59-1.06,18.39,18.39,0,0,1,6.94,1,6.39,6.39,0,0,1,3.58,3.29,14.64,14.64,0,0,1,1.18,6v7.67a13.53,13.53,0,0,0,.62,4,12.34,12.34,0,0,1,.63,2.67,2.46,2.46,0,0,1-1,1.89,3.27,3.27,0,0,1-2.19.84,3,3,0,0,1-2.1-1.07A14.86,14.86,0,0,1,190.73,33.39Zm-.48-9.65A33.22,33.22,0,0,1,186,24.89c-1.88.4-3.18.69-3.9.88A5.3,5.3,0,0,0,180,26.88a2.8,2.8,0,0,0-1,2.28,3.35,3.35,0,0,0,1.16,2.59,4.22,4.22,0,0,0,3,1.07,8,8,0,0,0,3.67-.87,5.76,5.76,0,0,0,2.45-2.24,10.06,10.06,0,0,0,.91-5Z"/><path class="cls-1" d="M202.79,10.56h.73v-4A22.3,22.3,0,0,1,203.6,4a4,4,0,0,1,.48-1.59,3.11,3.11,0,0,1,1.14-1.08,3.26,3.26,0,0,1,1.64-.48,3.35,3.35,0,0,1,2.31,1A2.9,2.9,0,0,1,210,3.39a15,15,0,0,1,.18,2.67v4.5h2.46a3.13,3.13,0,0,1,2.16.68,2.2,2.2,0,0,1,.78,1.73,1.92,1.92,0,0,1-1.07,1.89,7,7,0,0,1-3.06.54h-1.21V27.72a19.38,19.38,0,0,0,0,2.41,2.46,2.46,0,0,0,.58,1.34,2.09,2.09,0,0,0,1.57.52,8.43,8.43,0,0,0,1.58-.2,7.93,7.93,0,0,1,1.61-.17,2,2,0,0,1,1.45.65,2.15,2.15,0,0,1,.66,1.6A2.69,2.69,0,0,1,216,36.36a12.09,12.09,0,0,1-5.08.85,8.68,8.68,0,0,1-4.76-1.06A4.8,4.8,0,0,1,204,33.23a19.83,19.83,0,0,1-.51-5V15.4h-.88a3.27,3.27,0,0,1-2.19-.7,2.24,2.24,0,0,1-.76-1.75,2.2,2.2,0,0,1,.8-1.72A3.53,3.53,0,0,1,202.79,10.56Z"/><path class="cls-1" d="M226.75,4.09V14a14.46,14.46,0,0,1,2.5-2.32,9.17,9.17,0,0,1,2.67-1.34,11.25,11.25,0,0,1,3.16-.42A9.18,9.18,0,0,1,239.61,11a7.62,7.62,0,0,1,3.11,3.13,8.22,8.22,0,0,1,1,2.67,21.77,21.77,0,0,1,.24,3.42V33.07a4.43,4.43,0,0,1-.92,3,3.13,3.13,0,0,1-2.45,1c-2.2,0-3.31-1.33-3.31-4.07V21.83a10.15,10.15,0,0,0-1-4.94,3.76,3.76,0,0,0-3.63-1.74,5.41,5.41,0,0,0-3.22,1A6.17,6.17,0,0,0,227.28,19a17.78,17.78,0,0,0-.54,5.34v8.85a4.51,4.51,0,0,1-.9,3,3.08,3.08,0,0,1-2.48,1c-2.22,0-3.31-1.33-3.31-4.07V4.09A4.55,4.55,0,0,1,221,1a3,3,0,0,1,2.41-1,3.14,3.14,0,0,1,2.49,1A4.57,4.57,0,0,1,226.75,4.09Z"/><path class="cls-1" d="M269.26,25.23H256.15a8.83,8.83,0,0,0,.92,4,6.32,6.32,0,0,0,2.37,2.67,6.14,6.14,0,0,0,3.29.89,7.37,7.37,0,0,0,2.19-.29,7.17,7.17,0,0,0,1.93-.88,14.84,14.84,0,0,0,1.71-1.34c.52-.45,1.2-1.08,2.05-1.86a2.14,2.14,0,0,1,1.46-.45,2.48,2.48,0,0,1,1.67.57,2,2,0,0,1,.64,1.6,4.33,4.33,0,0,1-.72,2.12,8.42,8.42,0,0,1-2.13,2.32,12.25,12.25,0,0,1-3.61,1.86,15.63,15.63,0,0,1-5,.73,13.34,13.34,0,0,1-10-3.67,13.71,13.71,0,0,1-3.59-10,16.71,16.71,0,0,1,.89-5.52,11.94,11.94,0,0,1,2.58-4.35A11.13,11.13,0,0,1,257,10.9a15,15,0,0,1,5.5-1,13,13,0,0,1,6.68,1.65,10.65,10.65,0,0,1,4.2,4.27,11.11,11.11,0,0,1,1.4,5.34c0,1.68-.48,2.78-1.44,3.27A8.81,8.81,0,0,1,269.26,25.23Zm-13.11-3.85H268.3a8.22,8.22,0,0,0-1.86-5.14,5.52,5.52,0,0,0-4.23-1.7,5.35,5.35,0,0,0-4.11,1.72A8.59,8.59,0,0,0,256.15,21.38Z"/><path class="cls-1" d="M287.07,27.54v5.6a4.28,4.28,0,0,1-1,3,3.14,3.14,0,0,1-2.42,1,3.11,3.11,0,0,1-2.38-1,4.35,4.35,0,0,1-.94-3V14.45c0-3,1.1-4.51,3.28-4.51A2.73,2.73,0,0,1,286,11a5.71,5.71,0,0,1,.8,3.12A11.86,11.86,0,0,1,289.31,11a5.12,5.12,0,0,1,3.38-1.05A8.7,8.7,0,0,1,296.78,11a3.15,3.15,0,0,1,2,2.8,2.82,2.82,0,0,1-2.67,2.82,9,9,0,0,1-1.77-.45,8.11,8.11,0,0,0-2.48-.46,3.65,3.65,0,0,0-2.42.78A5,5,0,0,0,288,18.77a15.47,15.47,0,0,0-.71,3.62A50.85,50.85,0,0,0,287.07,27.54Z"/><path class="cls-1" d="M125.91,77.11,124.33,73H110.89l-1.57,4.23a15.1,15.1,0,0,1-1.58,3.35,2.53,2.53,0,0,1-2.14.87,3.14,3.14,0,0,1-2.24-.93,2.83,2.83,0,0,1-1-2,4.32,4.32,0,0,1,.23-1.33c.14-.48.4-1.15.73-2l8.47-21.45.86-2.22a10.9,10.9,0,0,1,1.08-2.16,4.2,4.2,0,0,1,1.51-1.33,4.55,4.55,0,0,1,2.31-.54,4.66,4.66,0,0,1,2.34.54,4.49,4.49,0,0,1,1.51,1.33,9.39,9.39,0,0,1,1,1.79l1,2.56L132,75a10.65,10.65,0,0,1,1,3.54,3,3,0,0,1-1,2.11,3.13,3.13,0,0,1-2.31,1,2.92,2.92,0,0,1-1.33-.28,2.83,2.83,0,0,1-1-.77A6.93,6.93,0,0,1,126.7,79,15,15,0,0,0,125.91,77.11Zm-13.26-9.17h9.88l-5-13.66Z"/><path class="cls-1" d="M143.22,59.83v.74a12.48,12.48,0,0,1,3.61-3.14,8.83,8.83,0,0,1,4.24-1,9.61,9.61,0,0,1,5.22,1.47,10,10,0,0,1,3.78,4.27,15.05,15.05,0,0,1,1.34,6.68,16.26,16.26,0,0,1-.8,5.22,11.56,11.56,0,0,1-2.21,4,9.54,9.54,0,0,1-3.29,2.48,9.79,9.79,0,0,1-4.09.87,8.55,8.55,0,0,1-4.43-1.07,12.52,12.52,0,0,1-3.42-3.11v9.21c0,2.67-1,4-2.95,4a2.39,2.39,0,0,1-2.31-1.06,6.76,6.76,0,0,1-.51-3V59.87a3.9,3.9,0,0,1,.78-2.67,2.66,2.66,0,0,1,2.09-.86,2.77,2.77,0,0,1,2.13.89A3.61,3.61,0,0,1,143.22,59.83Zm12,9a10.66,10.66,0,0,0-.73-4.18,6.33,6.33,0,0,0-2.07-2.67,5,5,0,0,0-2.93-.93,5.42,5.42,0,0,0-4.28,2,8.66,8.66,0,0,0-1.68,5.9,8.5,8.5,0,0,0,1.73,5.71,5.43,5.43,0,0,0,4.3,2,5,5,0,0,0,2.82-.87,6.11,6.11,0,0,0,2.09-2.67,10.33,10.33,0,0,0,.79-4.32Z"/><path class="cls-1" d="M172.07,59.83v.74a12.48,12.48,0,0,1,3.61-3.14,8.94,8.94,0,0,1,4.24-1,9.7,9.7,0,0,1,5.24,1.47,10.21,10.21,0,0,1,3.78,4.27,15,15,0,0,1,1.33,6.68,16.26,16.26,0,0,1-.8,5.22,11.68,11.68,0,0,1-2.19,4,9.64,9.64,0,0,1-7.4,3.35,8.6,8.6,0,0,1-4.43-1.07A12.52,12.52,0,0,1,172,77.24v9.21c0,2.67-1,4-2.95,4a2.36,2.36,0,0,1-2.29-1.06,6.6,6.6,0,0,1-.55-3V59.87A3.94,3.94,0,0,1,167,57.2a2.68,2.68,0,0,1,2.1-.86,2.77,2.77,0,0,1,2.13.89A3.63,3.63,0,0,1,172.07,59.83Zm12,9a10.67,10.67,0,0,0-.75-4.18,6,6,0,0,0-2.07-2.67,4.75,4.75,0,0,0-2.91-.93,5.47,5.47,0,0,0-4.3,2,8.75,8.75,0,0,0-1.74,5.91,8.59,8.59,0,0,0,1.73,5.72,5.46,5.46,0,0,0,4.31,2,5,5,0,0,0,2.9-.89,6.2,6.2,0,0,0,2.1-2.67,10.64,10.64,0,0,0,.78-4.32Z"/><path class="cls-1" d="M0,20.67a4.33,4.33,0,0,1,1.14-3.16,4.44,4.44,0,0,1,6.26,0L14.91,25a4.3,4.3,0,0,1,.18,6.08l-.18.18A3.69,3.69,0,0,1,12,32.6a4.25,4.25,0,0,1-3.22-1.35L1.29,23.77A4,4,0,0,1,0,20.67Z"/><path class="cls-1" d="M36.2,16.31V5.67a4.57,4.57,0,0,1,1.19-3.19,4,4,0,0,1,2.93-1.31,4.21,4.21,0,0,1,3.13,1.31A4.36,4.36,0,0,1,44.7,5.67v10.7a4.29,4.29,0,0,1-4.14,4.44,1.92,1.92,0,0,1-.24,0,4.2,4.2,0,0,1-2.93-1.31A4.57,4.57,0,0,1,36.2,16.31Z"/><path class="cls-1" d="M64.79,28.15A4.49,4.49,0,0,1,66.05,25l7.69-7.48a3.83,3.83,0,0,1,3.09-1.29,4,4,0,0,1,2.93,1.23,4.48,4.48,0,0,1,1.14,3.22,4.39,4.39,0,0,1-1.14,3.1l-7.4,7.48a4.54,4.54,0,0,1-2.92,1.4,4.8,4.8,0,0,1-4.86-4.5Z"/><path class="cls-1" d="M0,68.64a20.61,20.61,0,0,1,15.94-20,25,25,0,0,1,43.8-10.35,25,25,0,0,1,4.84,9.85H66A21,21,0,0,1,76.4,50.81a20.72,20.72,0,0,1,.49,35.58,20.14,20.14,0,0,1-10,2.92H20.06A20.44,20.44,0,0,1,5.85,82.94,19.75,19.75,0,0,1,0,68.64Zm7.14,0a13.32,13.32,0,0,0,3.77,9.45A13.15,13.15,0,0,0,20,82.39H66.81a13,13,0,0,0,9.12-4.3,13.19,13.19,0,0,0,3.8-9.45,12.78,12.78,0,0,0-4.09-9.47,13.14,13.14,0,0,0-9.65-4H59.26a.68.68,0,0,1-.73-.61.75.75,0,0,1,0-.15L58.24,52a16.94,16.94,0,0,0-5.85-11.37,17.38,17.38,0,0,0-11.93-4.51,17.19,17.19,0,0,0-11.89,4.59,16.86,16.86,0,0,0-5.85,11.38l-.32,2.36c0,.5-.3.76-.85.76H19.33a13.61,13.61,0,0,0-8.77,4.45A13,13,0,0,0,7.14,68.64Z"/></g></g></svg>