<svg xmlns="http://www.w3.org/2000/svg" viewBox="0 0 96.93 71.86"><defs><style>.cls-1{opacity:0.95;}.cls-2{fill:#e9eff2;}</style></defs><title>pressure</title><g id="Layer_2" data-name="Layer 2"><g id="Layer_1-2" data-name="Layer 1"><g id="Dibujo" class="cls-1"><path class="cls-2" d="M61.14,51.12l-9.33,9.33v-22a3.35,3.35,0,0,0-6.69,0v22l-9.33-9.33a3.34,3.34,0,0,0-4.73,4.72l15,15a3.35,3.35,0,0,0,.51.42l.25.13a3.47,3.47,0,0,0,.33.18l.33.1c.1,0,.19.07.29.09a3.61,3.61,0,0,0,1.31,0l.29-.09.33-.1a3.47,3.47,0,0,0,.33-.18l.25-.13a5.17,5.17,0,0,0,.51-.42l15-15a3.34,3.34,0,1,0-4.73-4.72Z"/><path class="cls-2" d="M78.55,20.05a17.33,17.33,0,0,0-2.83.31,28.43,28.43,0,0,0-54.52,0,17.1,17.1,0,0,0-2.82-.31,18.39,18.39,0,0,0,0,36.77h3.35a3.35,3.35,0,0,0,0-6.69H18.38a11.7,11.7,0,0,1,0-23.4,11.57,11.57,0,0,1,2,.27v3.07a3.34,3.34,0,0,0,6.68,0V24.69a21.72,21.72,0,0,1,42.81,0v5.37a3.34,3.34,0,0,0,6.68,0V27a11.57,11.57,0,0,1,2-.27,11.7,11.7,0,0,1,0,23.4H75.2a3.35,3.35,0,0,0,0,6.69h3.35a18.39,18.39,0,0,0,0-36.77Z"/></g></g></g></svg>