<svg xmlns="http://www.w3.org/2000/svg" viewBox="0 0 30.78 72.75"><defs><style>.cls-1{opacity:0.95;}.cls-2{fill:#e9eff2;}</style></defs><title>temp</title><g id="Layer_2" data-name="Layer 2"><g id="Layer_1-2" data-name="Layer 1"><g id="Dibujo" class="cls-1"><path class="cls-2" d="M18.19,51V35a2.8,2.8,0,0,0-5.6,0V51a7,7,0,1,0,5.6,0Zm-2.8,7.8a1.4,1.4,0,1,1,1.4-1.4A1.4,1.4,0,0,1,15.39,58.76Z"/><path class="cls-2" d="M26.6,46.81l0-35.62a11.19,11.19,0,1,0-22.38,0l0,35.62a15.39,15.39,0,1,0,22.42,0ZM15.39,67.16A9.8,9.8,0,0,1,8.85,50.07,2.8,2.8,0,0,0,9.78,48V11.19a5.6,5.6,0,0,1,11.2,0V48a2.8,2.8,0,0,0,.93,2.08,9.8,9.8,0,0,1-6.54,17.09Z"/></g></g></g></svg>