<svg xmlns="http://www.w3.org/2000/svg" viewBox="0 0 95.25 73.27"><defs><style>.cls-1{opacity:0.95;}.cls-2{fill:#e9eff2;}</style></defs><title>wind</title><g id="Layer_2" data-name="Layer 2"><g id="Layer_1-2" data-name="Layer 1"><g id="Dibujo" class="cls-1"><path class="cls-2" d="M58.62,33h-55a3.67,3.67,0,0,0,0,7.33h55a12.82,12.82,0,0,1,0,25.64,3.67,3.67,0,1,0,0,7.33,20.15,20.15,0,0,0,0-40.3Z"/><path class="cls-2" d="M47.62,44H3.67a3.67,3.67,0,1,0,0,7.33H47.62a1.83,1.83,0,1,1,0,3.66,3.67,3.67,0,0,0,0,7.33,9.16,9.16,0,1,0,0-18.32Z"/><path class="cls-2" d="M86.09,18.32a3.66,3.66,0,1,0,0,7.32,1.84,1.84,0,0,1,0,3.67H78.77a3.66,3.66,0,1,0,0,7.32h7.32a9.16,9.16,0,1,0,0-18.31Z"/><path class="cls-2" d="M3.66,29.31H64.11A14.66,14.66,0,1,0,49.46,14.65a3.67,3.67,0,1,0,7.33,0A7.33,7.33,0,1,1,64.11,22H3.66a3.67,3.67,0,0,0,0,7.33Z"/></g></g></g></svg>