<svg xmlns="http://www.w3.org/2000/svg" viewBox="0 0 311.07 148.62"><defs><style>.cls-1{fill:#2f2e41;}.cls-2{fill:#f2f2f2;}.cls-3{fill:#e9eff2;}.cls-4{fill:#ffb8b8;}.cls-5{fill:#9ac1d9;}.cls-6{fill:#3f3d56;}.cls-7{fill:#e6e6e6;}</style></defs><title>woman</title><g id="Layer_2" data-name="Layer 2"><g id="Layer_1-2" data-name="Layer 1"><path class="cls-1" d="M237.86,148.62H222v-.2a6.19,6.19,0,0,1,6.19-6.19h9.72Z"/><path class="cls-2" d="M299.1,146.06c-2.69-.11-5.13-1.2-6.24-2.87-.05-.08-.1-.16-.14-.24a2.13,2.13,0,0,1-.09-2.25,2.92,2.92,0,0,1,2.65-1.13c1.11.12,2,1,1.52,1.7-.11-1.41-.19-2.9.95-4.13a4.22,4.22,0,0,1,2.33-1.21c2.3-.4,3.83.9,4.13,2.21a5.46,5.46,0,0,1-.4,2.91,5.15,5.15,0,0,1,5-1.1c1.74.53,2.71,2,2.11,3.27-.7,1.46-3,2.22-5.2,2.62A34.51,34.51,0,0,1,299.1,146.06Z"/><path class="cls-2" d="M205.61,146.06c-2.69-.11-5.13-1.2-6.24-2.87-.05-.08-.1-.16-.14-.24a2.15,2.15,0,0,1-.09-2.25,2.92,2.92,0,0,1,2.65-1.13c1.11.12,2,1,1.52,1.7-.11-1.41-.19-2.9.95-4.13a4.22,4.22,0,0,1,2.33-1.21c2.3-.4,3.83.9,4.13,2.21a5.46,5.46,0,0,1-.4,2.91,5.15,5.15,0,0,1,5-1.1c1.74.53,2.71,2,2.11,3.27-.7,1.46-3,2.22-5.2,2.62A34.51,34.51,0,0,1,205.61,146.06Z"/><path class="cls-3" d="M119.58,61.8H100.32A5.78,5.78,0,0,1,94.54,56V20a5.78,5.78,0,0,1,5.78-5.78h19.26A5.77,5.77,0,0,1,125.35,20V56A5.77,5.77,0,0,1,119.58,61.8Z"/><polygon class="cls-4" points="237.86 142.22 233.57 142.22 231.52 125.67 237.86 125.67 237.86 142.22"/><polygon class="cls-4" points="285.81 138.21 281.77 139.64 274.31 124.71 280.29 122.6 285.81 138.21"/><path class="cls-1" d="M288.23,141.76l-13,4.62-.06-.16a5.39,5.39,0,0,1,3.28-6.88h0l8-2.82Z"/><path class="cls-1" d="M237.74,136.66l-.29,0-5.25-1a1.58,1.58,0,0,1-1.29-1.52c-.77-35.33,3-59.08,11.15-76.1a1.56,1.56,0,0,1,1.64-.86l18.88,2.72a1.57,1.57,0,0,1,1.34,1.38L265.58,76c0,.07,0,.15.05.23l18.1,54.23a1.58,1.58,0,0,1-1,2L277.84,134a1.59,1.59,0,0,1-1.91-.79L251.45,87.09a.53.53,0,0,0-.71-.24.54.54,0,0,0-.28.36l-11.19,48.21A1.55,1.55,0,0,1,237.74,136.66Z"/><path class="cls-4" d="M222.82,29.45a3.72,3.72,0,0,1,.08.57l15,8.68,3.65-2.11,3.9,5.11-6.11,4.35A2.81,2.81,0,0,1,236,46L220.52,33.73A3.67,3.67,0,1,1,222.69,29a3.19,3.19,0,0,1,.13.44Z"/><path class="cls-5" d="M238.15,37.83a1.59,1.59,0,0,1,.78-1.06l6.9-3.86a4.38,4.38,0,0,1,5.37,6.92l-5.51,5.71a1.57,1.57,0,0,1-2.23,0l-.15-.17-4.86-6.3A1.58,1.58,0,0,1,238.15,37.83Z"/><circle class="cls-4" cx="254.23" cy="19.98" r="8.6"/><path class="cls-5" d="M262.6,61.76a1,1,0,0,1-.25,0l-18.62-3a1.58,1.58,0,0,1-1.3-1.81.64.64,0,0,0,0-.07l.9-4.27c-.46-.69-4.23-6.7.36-12.35a7.7,7.7,0,0,1,7.16-8l9.62-.74a7.76,7.76,0,0,1,8.31,7.14,8,8,0,0,1-.25,2.63l-4.41,19.34A1.59,1.59,0,0,1,262.6,61.76Z"/><path class="cls-4" d="M280,77.93a3.77,3.77,0,0,0-.92-5.24,3.25,3.25,0,0,0-.57-.33l-10.6-32.58-6.14,2.91,11.59,31.72A3.78,3.78,0,0,0,280,77.93Z"/><path class="cls-5" d="M270.23,45.2l-8.15,2.47a1.69,1.69,0,0,1-2.1-1.13,1.05,1.05,0,0,1-.06-.24l-1.24-8.41a4.69,4.69,0,0,1,9-2.68l3.61,7.66a1.67,1.67,0,0,1-.81,2.24.92.92,0,0,1-.23.09Z"/><path d="M245.87,20.31A10.67,10.67,0,0,0,257.15,18c-.91,2.38-.65,12.49-.65,12.49s8-3.8,9.08-4.47c6.41-3.92-2.43-21-9.79-18.29A4.18,4.18,0,0,0,253,9.9a4.13,4.13,0,0,0-4.77-1,6.63,6.63,0,0,0-3.35,3.84,9.57,9.57,0,0,0,.7,8.09Z"/><path class="cls-5" d="M208.34,0H11.55A11.57,11.57,0,0,0,0,11.55V65.48A11.56,11.56,0,0,0,11.55,77H208.34a11.55,11.55,0,0,0,11.55-11.55V11.55A11.56,11.56,0,0,0,208.34,0Zm10.85,65.48a10.86,10.86,0,0,1-10.85,10.85H11.55A10.87,10.87,0,0,1,.7,65.48V11.55A10.87,10.87,0,0,1,11.55.7H208.34a10.86,10.86,0,0,1,10.85,10.85Z"/><path class="cls-3" d="M31.08,51a4.21,4.21,0,1,1,4.2-4.21A4.21,4.21,0,0,1,31.08,51Zm0-7.71a3.51,3.51,0,1,0,3.5,3.5A3.51,3.51,0,0,0,31.08,43.24Z"/><path class="cls-3" d="M30.94,41.49a.34.34,0,0,1-.35-.35v-4a.34.34,0,0,1,.35-.35.35.35,0,0,1,.35.35v4A.35.35,0,0,1,30.94,41.49Z"/><path class="cls-3" d="M25.47,47h-4a.35.35,0,0,1-.35-.35.34.34,0,0,1,.35-.35h4a.34.34,0,0,1,.35.35A.35.35,0,0,1,25.47,47Z"/><path class="cls-3" d="M40.18,47h-4a.35.35,0,0,1-.35-.35.35.35,0,0,1,.35-.35h4a.35.35,0,0,1,.35.35A.35.35,0,0,1,40.18,47Z"/><path class="cls-3" d="M36,43.13a.35.35,0,0,1-.35-.35.33.33,0,0,1,.11-.25l1.68-1.64a.36.36,0,0,1,.5,0,.35.35,0,0,1,0,.49L36.29,43A.39.39,0,0,1,36,43.13Z"/><path class="cls-3" d="M25.76,43.13a.35.35,0,0,1-.24-.1l-1.69-1.64a.35.35,0,0,1,0-.49.36.36,0,0,1,.5,0h0L26,42.53A.34.34,0,0,1,26,43,.36.36,0,0,1,25.76,43.13Z"/><path class="cls-3" d="M24.42,52.7a.35.35,0,0,1-.35-.35.39.39,0,0,1,.1-.25l1.69-1.73a.35.35,0,0,1,.5.48h0l-1.69,1.74A.33.33,0,0,1,24.42,52.7Z"/><path class="cls-3" d="M38.08,53.05a.33.33,0,0,1-.25-.11l-2-2.08a.36.36,0,0,1,0-.5.35.35,0,0,1,.49,0h0l2,2.08a.36.36,0,0,1,0,.5A.35.35,0,0,1,38.08,53.05Z"/><path class="cls-3" d="M30.94,56.55a.35.35,0,0,1-.35-.35v-4a.35.35,0,0,1,.35-.35.35.35,0,0,1,.35.35v4A.35.35,0,0,1,30.94,56.55Z"/><path class="cls-3" d="M76.74,53.4H65.05a4.56,4.56,0,0,1,0-9.11H66a5.48,5.48,0,0,1,10.44,2.1h.35a3.51,3.51,0,0,1,0,7ZM65.05,45a3.86,3.86,0,0,0,0,7.71H76.74a2.8,2.8,0,0,0,0-5.6h-.69a.36.36,0,0,1-.35-.36,4.79,4.79,0,0,0-9.21-2,.34.34,0,0,1-.32.21Z"/><path class="cls-6" d="M115.78,46.76l-.27-.64a3.5,3.5,0,1,0-4.6-4.56l-.65-.27a4.2,4.2,0,1,1,5.52,5.47Z"/><path class="cls-6" d="M116.31,53.4H104.62a4.56,4.56,0,0,1,0-9.11h.89A5.49,5.49,0,0,1,116,46.39h.35a3.51,3.51,0,0,1,0,7ZM104.62,45a3.86,3.86,0,0,0,0,7.71h11.69a2.8,2.8,0,0,0,0-5.6h-.69a.36.36,0,0,1-.35-.36,4.87,4.87,0,0,0-4.81-4.9,4.81,4.81,0,0,0-4.4,2.94.35.35,0,0,1-.32.21Z"/><path class="cls-3" d="M155.87,51.65h-1.4a.35.35,0,0,1-.35-.35.34.34,0,0,1,.35-.35h1.4a2.81,2.81,0,0,0,0-5.61h-.68a.34.34,0,0,1-.35-.35,4.86,4.86,0,0,0-4.81-4.9,4.8,4.8,0,0,0-4.4,2.94.36.36,0,0,1-.33.21h-1.11a3.86,3.86,0,0,0,0,7.71h1.08a.35.35,0,0,1,.35.35.35.35,0,0,1-.35.35h-1.08a4.56,4.56,0,0,1,0-9.11h.89A5.51,5.51,0,0,1,150,39.39a5.56,5.56,0,0,1,5.5,5.25h.34a3.51,3.51,0,0,1,0,7Z"/><path class="cls-3" d="M150,53.16a.35.35,0,0,1-.35-.35v-4a.35.35,0,0,1,.7,0v4A.35.35,0,0,1,150,53.16Z"/><path class="cls-3" d="M147.52,55.26a.35.35,0,0,1-.35-.35v-4a.35.35,0,0,1,.7,0v4A.35.35,0,0,1,147.52,55.26Z"/><path class="cls-3" d="M152.42,56.31a.35.35,0,0,1-.35-.35v-4a.35.35,0,0,1,.35-.35.35.35,0,0,1,.35.35v4A.35.35,0,0,1,152.42,56.31Z"/><path class="cls-3" d="M195.44,51.65H194a.35.35,0,0,1-.35-.35A.34.34,0,0,1,194,51h1.4a2.81,2.81,0,0,0,0-5.61h-.69a.35.35,0,0,1-.35-.35,4.79,4.79,0,0,0-9.21-2,.34.34,0,0,1-.32.21h-1.12a3.86,3.86,0,0,0,0,7.71h1.09a.35.35,0,0,1,.35.35.35.35,0,0,1-.35.35h-1.09a4.56,4.56,0,0,1,0-9.11h.9a5.48,5.48,0,0,1,10.44,2.1h.35a3.51,3.51,0,0,1,0,7Z"/><circle class="cls-3" cx="188.99" cy="49.98" r="0.79"/><circle class="cls-3" cx="191.62" cy="51.03" r="0.79"/><circle class="cls-3" cx="187.24" cy="52.26" r="0.79"/><circle class="cls-3" cx="190.04" cy="54.01" r="0.79"/><path class="cls-5" d="M41,25H20.66a2.81,2.81,0,0,1,0-5.61H41A2.81,2.81,0,0,1,41,25Z"/><path class="cls-5" d="M80.53,25H60.23a2.81,2.81,0,1,1,0-5.61h20.3a2.81,2.81,0,1,1,0,5.61Z"/><path class="cls-5" d="M120.1,25H99.79a2.81,2.81,0,0,1,0-5.61H120.1a2.81,2.81,0,0,1,0,5.61Z"/><path class="cls-5" d="M159.67,25H139.36a2.81,2.81,0,0,1,0-5.61h20.31a2.81,2.81,0,0,1,0,5.61Z"/><path class="cls-5" d="M199.24,25H178.93a2.81,2.81,0,0,1,0-5.61h20.31a2.81,2.81,0,0,1,0,5.61Z"/><path class="cls-7" d="M49.72,58a.35.35,0,0,1-.35-.35V31a.35.35,0,1,1,.7,0V57.6A.35.35,0,0,1,49.72,58Z"/><path class="cls-7" d="M89.29,57.6a.35.35,0,0,1-.35-.35V30.64a.34.34,0,0,1,.35-.35.35.35,0,0,1,.35.35V57.25A.35.35,0,0,1,89.29,57.6Z"/><path class="cls-7" d="M131,57.6a.35.35,0,0,1-.35-.35V30.64a.34.34,0,0,1,.35-.35.35.35,0,0,1,.35.35V57.25A.35.35,0,0,1,131,57.6Z"/><path class="cls-7" d="M170.52,57.6a.35.35,0,0,1-.35-.35V30.64a.35.35,0,0,1,.35-.35.34.34,0,0,1,.35.35V57.25A.35.35,0,0,1,170.52,57.6Z"/></g></g></svg>